<?xml version="1.0" encoding="utf-8"?>
<!-- Generator: Adobe Illustrator 21.1.0, SVG Export Plug-In . SVG Version: 6.00 Build 0)  -->
<svg version="1.1" id="Layer_1" xmlns="http://www.w3.org/2000/svg" xmlns:xlink="http://www.w3.org/1999/xlink" x="0px" y="0px"
	 width="249.1px" height="250px" viewBox="0 0 249.1 250" enable-background="new 0 0 249.1 250" xml:space="preserve">
<path fill="#009DDC" d="M233.8,35.1c-1.2-6.5-4.8-12.1-10.3-15.9c-11.2-7.6-26.5-4.8-34.2,6.4L88.9,171.7l-31.7-32.6
	c-4.6-4.7-10.7-7.3-17.3-7.4c-6.6-0.1-12.8,2.4-17.5,7c-9.7,9.5-9.9,25.1-0.5,34.8l52.6,54c4.6,4.8,11,7.5,17.7,7.5
	c0.7,0,1.5,0,2.1-0.1c7.4-0.6,14-4.5,18.1-10.6L229.8,53.5C233.6,48.1,235,41.6,233.8,35.1z"/>
</svg>
